
<svg width="98318" height="98476" xmlns="http://www.w3.org/2000/svg">
    <path d="M 98154 50433 L 98154 51659 L 98318 51659 L 98318 52839 L 97531 52839 L 97531 54072 L 97795 54072 L 97795 55273 L 97599 55273 L 97599 56438 L 97163 56438 L 97163 57630 L 96985 57630 L 96985 58862 L 97008 58862 L 97008 60001 L 96540 60001 L 96540 61238 L 96525 61238 L 96525 62389 L 96136 62389 L 96136 63729 L 96399 63729 L 96399 64863 L 95924 64863 L 95924 66096 L 95742 66096 L 95742 67229 L 95265 67229 L 95265 68026 L 93975 68026 L 93975 69483 L 94298 69483 L 94298 70437 L 93447 70437 L 93447 71702 L 93255 71702 L 93255 72471 L 92092 72471 L 92092 73807 L 91997 73807 L 91997 74541 L 90844 74541 L 90844 75747 L 90491 75747 L 90491 76890 L 90014 76890 L 90014 77857 L 89265 77857 L 89265 78572 L 88186 78572 L 88186 79561 L 87489 79561 L 87489 80961 L 87282 80961 L 87282 81285 L 85786 81285 L 85786 82279 L 85089 82279 L 85089 83598 L 84715 83598 L 84715 84056 L 83449 84056 L 83449 85206 L 82869 85206 L 82869 85762 L 81730 85762 L 81730 86992 L 81183 86992 L 81183 87726 L 80201 87726 L 80201 88040 L 78902 88040 L 78902 89210 L 78253 89210 L 78253 89823 L 77189 89823 L 77189 90009 L 75855 90009 L 75855 90815 L 74933 90815 L 74933 91606 L 73991 91606 L 73991 92411 L 73044 92411 L 73044 92934 L 71938 92934 L 71938 93433 L 70822 93433 L 70822 93648 L 69581 93648 L 69581 94314 L 68546 94314 L 68546 95024 L 67517 95024 L 67517 94716 L 66105 94716 L 66105 95285 L 65025 95285 L 65025 96388 L 64097 96388 L 64097 96208 L 62773 96208 L 62773 96508 L 61596 96508 L 61596 96717 L 60399 96717 L 60399 96734 L 59166 96734 L 59166 97217 L 58025 97217 L 58025 97725 L 56872 97725 L 56872 97536 L 55620 97536 L 55620 97385 L 54388 97385 L 54388 97698 L 53201 97698 L 53201 97956 L 51999 97956 L 51999 98476 L 50792 98476 L 50792 97657 L 49571 97657 L 49571 97890 L 48355 97890 L 48355 98145 L 47124 98145 L 47124 98316 L 45883 98316 L 45883 97952 L 44687 97952 L 44687 97958 L 43453 97958 L 43453 97033 L 42361 97033 L 42361 96816 L 41173 96816 L 41173 97033 L 39892 97033 L 39892 96956 L 38657 96956 L 38657 96441 L 37528 96441 L 37528 96130 L 36350 96130 L 36350 95671 L 35217 95671 L 35217 95273 L 34069 95273 L 34069 95070 L 32845 95070 L 32845 94644 L 31699 94644 L 31699 93613 L 30817 93613 L 30817 93489 L 29542 93489 L 29542 93176 L 28337 93176 L 28337 92481 L 27321 92481 L 27321 91694 L 26364 91694 L 26364 90870 L 25443 90870 L 25443 90230 L 24418 90230 L 24418 89472 L 23473 89472 L 23473 88942 L 22372 88942 L 22372 88622 L 21100 88622 L 21100 87565 L 20378 87565 L 20378 86615 L 19591 86615 L 19591 86172 L 18377 86172 L 18377 85663 L 17192 85663 L 17192 84787 L 16331 84787 L 16331 83324 L 16070 83324 L 16070 82800 L 14866 82800 L 14866 82182 L 13727 82182 L 13727 80646 L 13644 80646 L 13644 80193 L 12282 80193 L 12282 79304 L 11429 79304 L 11429 78018 L 11116 78018 L 11116 77212 L 10142 77212 L 10142 75913 L 9901 75913 L 9901 74888 L 9258 74888 L 9258 74205 L 8022 74205 L 8022 73085 L 7511 73085 L 7511 71792 L 7349 71792 L 7349 70816 L 6580 70816 L 6580 69681 L 6128 69681 L 6128 68714 L 5284 68714 L 5284 67466 L 5106 67466 L 5106 66359 L 4578 66359 L 4578 65036 L 4680 65036 L 4680 63974 L 4016 63974 L 4016 62754 L 3859 62754 L 3859 61611 L 3430 61611 L 3430 60462 L 2997 60462 L 2997 59180 L 3198 59180 L 3198 57968 L 3115 57968 L 3115 56786 L 2871 56786 L 2871 55659 L 2129 55659 L 2129 54386 L 2631 54386 L 2631 53203 L 2260 53203 L 2260 51991 L 2244 51991 L 2244 50781 L 2169 50781 L 2169 50401 L 94699 50401 L 94699 48346 L 1840 48346 L 1840 47122 L 1834 47122 L 1834 45904 L 1930 45904 L 1930 44738 L 2511 44738 L 2511 43572 L 2915 43572 L 2915 42343 L 2857 42343 L 2857 41166 L 3146 41166 L 3146 39955 L 3257 39955 L 3257 38776 L 3536 38776 L 3536 37554 L 3652 37554 L 3652 36292 L 3674 36292 L 3674 35141 L 4091 35141 L 4091 33976 L 4464 33976 L 4464 32898 L 5069 32898 L 5069 31972 L 6021 31972 L 6021 30493 L 5649 30493 L 5649 29455 L 6326 29455 L 6326 28642 L 7432 28642 L 7432 27428 L 7720 27428 L 7720 26421 L 8405 26421 L 8405 25199 L 8722 25199 L 8722 24020 L 9143 24020 L 9143 23327 L 10310 23327 L 10310 21943 L 10453 21943 L 10453 21244 L 11568 21244 L 11568 20019 L 11979 20019 L 11979 19219 L 12936 19219 L 12936 18221 L 13648 18221 L 13648 17813 L 15012 17813 L 15012 16324 L 15205 16324 L 15205 16070 L 16674 16070 L 16674 14784 L 17123 14784 L 17123 14187 L 18224 14187 L 18224 13164 L 18948 13164 L 18948 12901 L 20301 12901 L 20301 12140 L 21235 12140 L 21235 10741 L 21711 10741 L 21711 10344 L 22925 10344 L 22925 10007 L 24155 10007 L 24155 9447 L 25226 9447 L 25226 8483 L 26060 8483 L 26060 8154 L 27263 8154 L 27263 7684 L 28378 7684 L 28378 6350 L 29073 6350 L 29073 6326 L 30407 6326 L 30407 6127 L 31638 6127 L 31638 4808 L 32417 4808 L 32417 5034 L 33804 5034 L 33804 4750 L 34986 4750 L 34986 4343 L 36124 4343 L 36124 3377 L 37112 3377 L 37112 3398 L 38380 3398 L 38380 3461 L 39640 3461 L 39640 3182 L 40816 3182 L 40816 2907 L 41995 2907 L 41995 2161 L 43111 2161 L 43111 2019 L 44327 2019 L 44327 2137 L 45567 2137 L 45567 2347 L 46801 2347 L 46801 2084 L 48001 2084 L 48001 1828 L 49212 1828 L 49212 2439 L 50427 2439 L 50427 2250 L 51639 2250 L 51639 2565 L 52833 2565 L 52833 2148 L 54077 2148 L 54077 2164 L 55299 2164 L 55299 2738 L 56451 2738 L 56451 2802 L 57665 2802 L 57665 3238 L 58815 3238 L 58815 2830 L 60136 2830 L 60136 3636 L 61199 3636 L 61199 3429 L 62505 3429 L 62505 3635 L 63718 3635 L 63718 4523 L 64718 4523 L 64718 5061 L 65813 5061 L 65813 5459 L 66953 5459 L 66953 5293 L 68325 5293 L 68325 6415 L 69169 6415 L 69169 6668 L 70383 6668 L 70383 6681 L 71733 6681 L 71733 7882 L 72484 7882 L 72484 7927 L 73849 7927 L 73849 8994 L 74637 8994 L 74637 9180 L 75955 9180 L 75955 10353 L 76643 10353 L 76643 10757 L 77840 10757 L 77840 11923 L 78490 11923 L 78490 12448 L 79611 12448 L 79611 13185 L 80573 13185 L 80573 13529 L 81882 13529 L 81882 14572 L 82591 14572 L 82591 15742 L 83155 15742 L 83155 16606 L 83999 16606 L 83999 17071 L 85270 17071 L 85270 18173 L 85870 18173 L 85870 19222 L 86510 19222 L 86510 20214 L 87207 20214 L 87207 21071 L 88074 21071 L 88074 22170 L 88622 22170 L 88622 22934 L 89641 22934 L 89641 23738 L 90637 23738 L 90637 24863 L 91147 24863 L 91147 25941 L 91723 25941 L 91723 26996 L 92336 26996 L 92336 28213 L 92638 28213 L 92638 29042 L 93713 29042 L 93713 30301 L 93909 30301 L 93909 31451 L 94317 31451 L 94317 32685 L 94502 32685 L 94502 33573 L 95609 33573 L 95609 34821 L 95747 34821 L 95747 36122 L 95663 36122 L 95663 37280 L 96014 37280 L 96014 38330 L 96801 38330 L 96801 39562 L 96891 39562 L 96891 40803 L 96883 40803 L 96883 42002 L 97055 42002 L 97055 43148 L 97578 43148 L 97578 44409 L 97285 44409 L 97285 45554 L 97999 45554 L 97999 46811 L 97513 46811 L 97513 48015 L 97582 48015 L 97582 49215 L 98001 49215 L 98001 50433" />
    <rect x="5106" y="50401" width="89593" height="17065" fill="red" />
</svg>